<mxfile host="app.diagrams.net" modified="2024-03-12T21:58:16.341Z" agent="Mozilla/5.0 (Windows NT 10.0; Win64; x64) AppleWebKit/537.36 (KHTML, like Gecko) Chrome/122.0.0.0 Safari/537.36" etag="FHRYKPL-AavauM_bWdr8" version="24.0.5" type="device">
  <diagram name="Page-1" id="2YBvvXClWsGukQMizWep">
    <mxGraphModel dx="1687" dy="878" grid="1" gridSize="10" guides="1" tooltips="1" connect="1" arrows="1" fold="1" page="1" pageScale="1" pageWidth="850" pageHeight="1100" math="0" shadow="0">
      <root>
        <mxCell id="0" />
        <mxCell id="1" parent="0" />
        <mxCell id="aM9ryv3xv72pqoxQDRHE-1" value=":Librarian" style="shape=umlLifeline;perimeter=lifelinePerimeter;whiteSpace=wrap;html=1;container=0;dropTarget=0;collapsible=0;recursiveResize=0;outlineConnect=0;portConstraint=eastwest;newEdgeStyle={&quot;edgeStyle&quot;:&quot;elbowEdgeStyle&quot;,&quot;elbow&quot;:&quot;vertical&quot;,&quot;curved&quot;:0,&quot;rounded&quot;:0};" parent="1" vertex="1">
          <mxGeometry x="20" y="190" width="100" height="500" as="geometry" />
        </mxCell>
        <mxCell id="aM9ryv3xv72pqoxQDRHE-2" value="" style="html=1;points=[];perimeter=orthogonalPerimeter;outlineConnect=0;targetShapes=umlLifeline;portConstraint=eastwest;newEdgeStyle={&quot;edgeStyle&quot;:&quot;elbowEdgeStyle&quot;,&quot;elbow&quot;:&quot;vertical&quot;,&quot;curved&quot;:0,&quot;rounded&quot;:0};" parent="aM9ryv3xv72pqoxQDRHE-1" vertex="1">
          <mxGeometry x="45" y="70" width="10" height="410" as="geometry" />
        </mxCell>
        <mxCell id="aM9ryv3xv72pqoxQDRHE-5" value=":LibraryManagmentSystem" style="shape=umlLifeline;perimeter=lifelinePerimeter;whiteSpace=wrap;html=1;container=0;dropTarget=0;collapsible=0;recursiveResize=0;outlineConnect=0;portConstraint=eastwest;newEdgeStyle={&quot;edgeStyle&quot;:&quot;elbowEdgeStyle&quot;,&quot;elbow&quot;:&quot;vertical&quot;,&quot;curved&quot;:0,&quot;rounded&quot;:0};" parent="1" vertex="1">
          <mxGeometry x="180" y="190" width="160" height="490" as="geometry" />
        </mxCell>
        <mxCell id="aM9ryv3xv72pqoxQDRHE-6" value="" style="html=1;points=[];perimeter=orthogonalPerimeter;outlineConnect=0;targetShapes=umlLifeline;portConstraint=eastwest;newEdgeStyle={&quot;edgeStyle&quot;:&quot;elbowEdgeStyle&quot;,&quot;elbow&quot;:&quot;vertical&quot;,&quot;curved&quot;:0,&quot;rounded&quot;:0};" parent="aM9ryv3xv72pqoxQDRHE-5" vertex="1">
          <mxGeometry x="75" y="70" width="10" height="30" as="geometry" />
        </mxCell>
        <mxCell id="pxPX-2n3eh1eVoqB7sqr-9" value="" style="html=1;points=[];perimeter=orthogonalPerimeter;outlineConnect=0;targetShapes=umlLifeline;portConstraint=eastwest;newEdgeStyle={&quot;edgeStyle&quot;:&quot;elbowEdgeStyle&quot;,&quot;elbow&quot;:&quot;vertical&quot;,&quot;curved&quot;:0,&quot;rounded&quot;:0};" vertex="1" parent="aM9ryv3xv72pqoxQDRHE-5">
          <mxGeometry x="75" y="135" width="10" height="30" as="geometry" />
        </mxCell>
        <mxCell id="pxPX-2n3eh1eVoqB7sqr-10" value="" style="html=1;points=[];perimeter=orthogonalPerimeter;outlineConnect=0;targetShapes=umlLifeline;portConstraint=eastwest;newEdgeStyle={&quot;edgeStyle&quot;:&quot;elbowEdgeStyle&quot;,&quot;elbow&quot;:&quot;vertical&quot;,&quot;curved&quot;:0,&quot;rounded&quot;:0};" vertex="1" parent="aM9ryv3xv72pqoxQDRHE-5">
          <mxGeometry x="75" y="205" width="10" height="255" as="geometry" />
        </mxCell>
        <mxCell id="pxPX-2n3eh1eVoqB7sqr-19" value="" style="html=1;points=[];perimeter=orthogonalPerimeter;outlineConnect=0;targetShapes=umlLifeline;portConstraint=eastwest;newEdgeStyle={&quot;edgeStyle&quot;:&quot;elbowEdgeStyle&quot;,&quot;elbow&quot;:&quot;vertical&quot;,&quot;curved&quot;:0,&quot;rounded&quot;:0};" vertex="1" parent="aM9ryv3xv72pqoxQDRHE-5">
          <mxGeometry x="85" y="290" width="10" height="30" as="geometry" />
        </mxCell>
        <mxCell id="pxPX-2n3eh1eVoqB7sqr-20" value="" style="html=1;points=[];perimeter=orthogonalPerimeter;outlineConnect=0;targetShapes=umlLifeline;portConstraint=eastwest;newEdgeStyle={&quot;edgeStyle&quot;:&quot;elbowEdgeStyle&quot;,&quot;elbow&quot;:&quot;vertical&quot;,&quot;curved&quot;:0,&quot;rounded&quot;:0};" vertex="1" parent="aM9ryv3xv72pqoxQDRHE-5">
          <mxGeometry x="85" y="360" width="10" height="60" as="geometry" />
        </mxCell>
        <mxCell id="pxPX-2n3eh1eVoqB7sqr-30" value="CreateNewUserAccount" style="html=1;verticalAlign=bottom;endArrow=block;edgeStyle=elbowEdgeStyle;elbow=horizontal;curved=0;rounded=0;" edge="1" parent="aM9ryv3xv72pqoxQDRHE-5" source="pxPX-2n3eh1eVoqB7sqr-10" target="pxPX-2n3eh1eVoqB7sqr-19">
          <mxGeometry relative="1" as="geometry">
            <mxPoint x="90" y="270" as="sourcePoint" />
            <Array as="points">
              <mxPoint x="190" y="270.03" />
            </Array>
            <mxPoint x="280" y="270.03" as="targetPoint" />
          </mxGeometry>
        </mxCell>
        <mxCell id="aM9ryv3xv72pqoxQDRHE-7" value="CreateNewAccount" style="html=1;verticalAlign=bottom;endArrow=block;edgeStyle=elbowEdgeStyle;elbow=vertical;curved=0;rounded=0;" parent="1" source="aM9ryv3xv72pqoxQDRHE-2" target="aM9ryv3xv72pqoxQDRHE-6" edge="1">
          <mxGeometry relative="1" as="geometry">
            <mxPoint x="175" y="280" as="sourcePoint" />
            <Array as="points">
              <mxPoint x="160" y="270" />
            </Array>
          </mxGeometry>
        </mxCell>
        <mxCell id="pxPX-2n3eh1eVoqB7sqr-11" value=":UserCredentials" style="shape=umlLifeline;perimeter=lifelinePerimeter;whiteSpace=wrap;html=1;container=0;dropTarget=0;collapsible=0;recursiveResize=0;outlineConnect=0;portConstraint=eastwest;newEdgeStyle={&quot;edgeStyle&quot;:&quot;elbowEdgeStyle&quot;,&quot;elbow&quot;:&quot;vertical&quot;,&quot;curved&quot;:0,&quot;rounded&quot;:0};" vertex="1" parent="1">
          <mxGeometry x="405" y="190" width="160" height="490" as="geometry" />
        </mxCell>
        <mxCell id="pxPX-2n3eh1eVoqB7sqr-12" value="" style="html=1;points=[];perimeter=orthogonalPerimeter;outlineConnect=0;targetShapes=umlLifeline;portConstraint=eastwest;newEdgeStyle={&quot;edgeStyle&quot;:&quot;elbowEdgeStyle&quot;,&quot;elbow&quot;:&quot;vertical&quot;,&quot;curved&quot;:0,&quot;rounded&quot;:0};" vertex="1" parent="pxPX-2n3eh1eVoqB7sqr-11">
          <mxGeometry x="75" y="235" width="10" height="30" as="geometry" />
        </mxCell>
        <mxCell id="pxPX-2n3eh1eVoqB7sqr-15" value=":EmailSystem" style="shape=umlLifeline;perimeter=lifelinePerimeter;whiteSpace=wrap;html=1;container=0;dropTarget=0;collapsible=0;recursiveResize=0;outlineConnect=0;portConstraint=eastwest;newEdgeStyle={&quot;edgeStyle&quot;:&quot;elbowEdgeStyle&quot;,&quot;elbow&quot;:&quot;vertical&quot;,&quot;curved&quot;:0,&quot;rounded&quot;:0};" vertex="1" parent="1">
          <mxGeometry x="650" y="190" width="160" height="490" as="geometry" />
        </mxCell>
        <mxCell id="pxPX-2n3eh1eVoqB7sqr-16" value="" style="html=1;points=[];perimeter=orthogonalPerimeter;outlineConnect=0;targetShapes=umlLifeline;portConstraint=eastwest;newEdgeStyle={&quot;edgeStyle&quot;:&quot;elbowEdgeStyle&quot;,&quot;elbow&quot;:&quot;vertical&quot;,&quot;curved&quot;:0,&quot;rounded&quot;:0};" vertex="1" parent="pxPX-2n3eh1eVoqB7sqr-15">
          <mxGeometry x="75" y="400" width="10" height="30" as="geometry" />
        </mxCell>
        <mxCell id="pxPX-2n3eh1eVoqB7sqr-21" value="SelectAccountType" style="html=1;verticalAlign=bottom;endArrow=block;edgeStyle=elbowEdgeStyle;elbow=vertical;curved=0;rounded=0;" edge="1" parent="1">
          <mxGeometry relative="1" as="geometry">
            <mxPoint x="75" y="340" as="sourcePoint" />
            <Array as="points">
              <mxPoint x="170" y="340" />
            </Array>
            <mxPoint x="255" y="340" as="targetPoint" />
          </mxGeometry>
        </mxCell>
        <mxCell id="pxPX-2n3eh1eVoqB7sqr-22" value="enterUserDetails" style="html=1;verticalAlign=bottom;endArrow=block;edgeStyle=elbowEdgeStyle;elbow=vertical;curved=0;rounded=0;" edge="1" parent="1">
          <mxGeometry relative="1" as="geometry">
            <mxPoint x="75" y="400" as="sourcePoint" />
            <Array as="points">
              <mxPoint x="165" y="400" />
            </Array>
            <mxPoint x="255" y="400" as="targetPoint" />
          </mxGeometry>
        </mxCell>
        <mxCell id="pxPX-2n3eh1eVoqB7sqr-25" value="CheckUserDetails" style="html=1;verticalAlign=bottom;endArrow=block;edgeStyle=elbowEdgeStyle;elbow=vertical;curved=0;rounded=0;" edge="1" parent="1" source="pxPX-2n3eh1eVoqB7sqr-10">
          <mxGeometry relative="1" as="geometry">
            <mxPoint x="270" y="434.86" as="sourcePoint" />
            <Array as="points" />
            <mxPoint x="480" y="435" as="targetPoint" />
          </mxGeometry>
        </mxCell>
        <mxCell id="pxPX-2n3eh1eVoqB7sqr-26" value="sendEmail" style="html=1;verticalAlign=bottom;endArrow=block;edgeStyle=elbowEdgeStyle;elbow=vertical;curved=0;rounded=0;" edge="1" parent="1" source="pxPX-2n3eh1eVoqB7sqr-20" target="pxPX-2n3eh1eVoqB7sqr-16">
          <mxGeometry relative="1" as="geometry">
            <mxPoint x="340" y="610" as="sourcePoint" />
            <Array as="points" />
            <mxPoint x="555" y="610" as="targetPoint" />
          </mxGeometry>
        </mxCell>
        <mxCell id="pxPX-2n3eh1eVoqB7sqr-29" value="" style="html=1;verticalAlign=bottom;endArrow=open;dashed=1;endSize=8;edgeStyle=elbowEdgeStyle;elbow=vertical;curved=0;rounded=0;" edge="1" parent="1" source="pxPX-2n3eh1eVoqB7sqr-10" target="aM9ryv3xv72pqoxQDRHE-2">
          <mxGeometry relative="1" as="geometry">
            <mxPoint x="75" y="640" as="targetPoint" />
            <Array as="points">
              <mxPoint x="170" y="640" />
            </Array>
            <mxPoint x="245" y="640" as="sourcePoint" />
          </mxGeometry>
        </mxCell>
        <mxCell id="pxPX-2n3eh1eVoqB7sqr-32" value="emailAccountDetails" style="html=1;verticalAlign=bottom;endArrow=block;edgeStyle=elbowEdgeStyle;elbow=horizontal;curved=0;rounded=0;" edge="1" parent="1">
          <mxGeometry relative="1" as="geometry">
            <mxPoint x="265" y="530" as="sourcePoint" />
            <Array as="points">
              <mxPoint x="370" y="530.03" />
            </Array>
            <mxPoint x="275" y="565" as="targetPoint" />
          </mxGeometry>
        </mxCell>
        <mxCell id="pxPX-2n3eh1eVoqB7sqr-34" value="&lt;span style=&quot;font-style: normal; font-variant-ligatures: normal; font-variant-caps: normal; font-weight: 400; letter-spacing: normal; orphans: 2; text-indent: 0px; text-transform: none; widows: 2; word-spacing: 0px; -webkit-text-stroke-width: 0px; white-space: normal; text-decoration-thickness: initial; text-decoration-style: initial; text-decoration-color: initial; color: rgb(64, 66, 67); font-family: Inter, sans-serif; text-align: start; background-color: rgb(255, 255, 255); font-size: 16px;&quot;&gt;&lt;font style=&quot;font-size: 16px;&quot;&gt;Создание новой учетной записи&lt;/font&gt;&lt;/span&gt;&lt;div style=&quot;color: rgb(0, 0, 0); font-family: Helvetica; font-style: normal; font-variant-ligatures: normal; font-variant-caps: normal; font-weight: 400; letter-spacing: normal; orphans: 2; text-align: center; text-indent: 0px; text-transform: none; widows: 2; word-spacing: 0px; -webkit-text-stroke-width: 0px; white-space: nowrap; background-color: rgb(251, 251, 251); text-decoration-thickness: initial; text-decoration-style: initial; text-decoration-color: initial; font-size: 16px;&quot;&gt;&lt;span style=&quot;color: rgb(64, 66, 67); font-family: Inter, sans-serif; text-align: start; text-wrap: wrap; background-color: rgb(255, 255, 255);&quot;&gt;&lt;font style=&quot;font-size: 16px;&quot;&gt;&amp;nbsp;пользователя библиотеки&lt;/font&gt;&lt;/span&gt;&lt;/div&gt;" style="text;whiteSpace=wrap;html=1;" vertex="1" parent="1">
          <mxGeometry x="40" y="60" width="270" height="60" as="geometry" />
        </mxCell>
      </root>
    </mxGraphModel>
  </diagram>
</mxfile>
